<svg width="95" height="95" viewBox="0 0 95 95" fill="none" xmlns="http://www.w3.org/2000/svg">
<path d="M55.4168 8.9833V25.3334C55.4168 27.5502 55.4168 28.6587 55.8483 29.5054C56.2278 30.2502 56.8333 30.8558 57.5781 31.2353C58.4248 31.6667 59.5333 31.6667 61.7502 31.6667H78.1002M79.1668 39.5367V68.0834C79.1668 74.734 79.1668 78.0593 77.8725 80.5995C76.734 82.8339 74.9174 84.6506 72.683 85.7891C70.1428 87.0834 66.8175 87.0834 60.1668 87.0834H34.8335C28.1829 87.0834 24.8576 87.0834 22.3174 85.7891C20.0829 84.6506 18.2663 82.8339 17.1278 80.5995C15.8335 78.0593 15.8335 74.734 15.8335 68.0834V26.9167C15.8335 20.2661 15.8335 16.9408 17.1278 14.4005C18.2663 12.1661 20.0829 10.3495 22.3174 9.21098C24.8576 7.91669 28.1829 7.91669 34.8335 7.91669H47.5468C50.4513 7.91669 51.9035 7.91669 53.2702 8.24479C54.4819 8.53569 55.6402 9.01549 56.7027 9.66658C57.9011 10.401 58.928 11.4279 60.9818 13.4817L73.6019 26.1017C75.6557 28.1555 76.6826 29.1824 77.4169 30.3808C78.068 31.4433 78.5478 32.6016 78.8387 33.8133C79.1668 35.18 79.1668 36.6322 79.1668 39.5367Z" stroke="black" stroke-opacity="0.8" stroke-width="8" stroke-linecap="round" stroke-linejoin="round"/>
</svg>
