<svg width="37" height="21" viewBox="0 0 37 21" fill="none" xmlns="http://www.w3.org/2000/svg">
<path d="M10.3063 5.596H6.63427V16H4.16827V5.596H0.478273V3.4H10.3063V5.596ZM9.5843 7.522C10.0643 7.306 10.6343 7.138 11.2943 7.018C11.9543 6.886 12.6443 6.82 13.3643 6.82C13.9883 6.82 14.5103 6.898 14.9303 7.054C15.3503 7.198 15.6803 7.408 15.9203 7.684C16.1723 7.96 16.3463 8.29 16.4423 8.674C16.5503 9.058 16.6043 9.49 16.6043 9.97C16.6043 10.498 16.5863 11.032 16.5503 11.572C16.5143 12.1 16.4903 12.622 16.4783 13.138C16.4783 13.654 16.4963 14.158 16.5323 14.65C16.5683 15.13 16.6583 15.586 16.8023 16.018H14.8943L14.5163 14.776H14.4263C14.1863 15.148 13.8503 15.472 13.4183 15.748C12.9983 16.012 12.4523 16.144 11.7803 16.144C11.3603 16.144 10.9823 16.084 10.6463 15.964C10.3103 15.832 10.0223 15.652 9.7823 15.424C9.5423 15.184 9.3563 14.908 9.2243 14.596C9.0923 14.272 9.0263 13.912 9.0263 13.516C9.0263 12.964 9.1463 12.502 9.3863 12.13C9.6383 11.746 9.9923 11.44 10.4483 11.212C10.9163 10.972 11.4683 10.81 12.1043 10.726C12.7523 10.63 13.4723 10.6 14.2643 10.636C14.3483 9.964 14.3003 9.484 14.1203 9.196C13.9403 8.896 13.5383 8.746 12.9143 8.746C12.4463 8.746 11.9483 8.794 11.4203 8.89C10.9043 8.986 10.4783 9.112 10.1423 9.268L9.5843 7.522ZM12.5543 14.218C13.0223 14.218 13.3943 14.116 13.6703 13.912C13.9463 13.696 14.1503 13.468 14.2823 13.228V12.058C13.9103 12.022 13.5503 12.016 13.2023 12.04C12.8663 12.064 12.5663 12.118 12.3023 12.202C12.0383 12.286 11.8283 12.406 11.6723 12.562C11.5163 12.718 11.4383 12.916 11.4383 13.156C11.4383 13.492 11.5343 13.756 11.7263 13.948C11.9303 14.128 12.2063 14.218 12.5543 14.218ZM20.98 12.976C20.98 13.396 21.034 13.702 21.142 13.894C21.25 14.086 21.424 14.182 21.664 14.182C21.808 14.182 21.946 14.17 22.078 14.146C22.222 14.122 22.396 14.068 22.6 13.984L22.852 15.82C22.66 15.916 22.366 16.012 21.97 16.108C21.574 16.204 21.166 16.252 20.746 16.252C20.062 16.252 19.54 16.096 19.18 15.784C18.82 15.46 18.64 14.932 18.64 14.2V3.4H20.98V12.976ZM26.271 12.976C26.271 13.396 26.325 13.702 26.433 13.894C26.541 14.086 26.715 14.182 26.955 14.182C27.099 14.182 27.237 14.17 27.369 14.146C27.513 14.122 27.687 14.068 27.891 13.984L28.143 15.82C27.951 15.916 27.657 16.012 27.261 16.108C26.865 16.204 26.457 16.252 26.037 16.252C25.353 16.252 24.831 16.096 24.471 15.784C24.111 15.46 23.931 14.932 23.931 14.2V3.4H26.271V12.976ZM32.426 12.058L32.75 13.462H32.858L33.092 12.04L34.46 7H36.872L34.136 15.118C33.908 15.79 33.686 16.402 33.47 16.954C33.266 17.518 33.038 18.004 32.786 18.412C32.534 18.82 32.252 19.132 31.94 19.348C31.64 19.576 31.28 19.69 30.86 19.69C30.236 19.69 29.738 19.588 29.366 19.384L29.798 17.512C29.978 17.584 30.158 17.62 30.338 17.62C30.614 17.62 30.878 17.5 31.13 17.26C31.394 17.032 31.592 16.612 31.724 16L27.962 7H30.77L32.426 12.058Z" fill="black"/>
</svg>
