<svg width="36" height="36" viewBox="0 0 36 36" fill="none" xmlns="http://www.w3.org/2000/svg">
<path d="M3.75 32.25L12.0739 29.0485C12.6063 28.8438 12.8725 28.7414 13.1216 28.6077C13.3428 28.4889 13.5537 28.3519 13.7521 28.1979C13.9754 28.0246 14.1771 27.823 14.5804 27.4196L31.5 10.5C33.1569 8.84318 33.1569 6.15688 31.5 4.50003C29.8432 2.84317 27.1569 2.84317 25.5 4.50002L8.58042 21.4196C8.17706 21.823 7.97538 22.0246 7.80209 22.248C7.64816 22.4463 7.5111 22.6572 7.39235 22.8785C7.25866 23.1275 7.15627 23.3937 6.9515 23.9261L3.75 32.25ZM3.75 32.25L6.83718 24.2235C7.0581 23.6491 7.16855 23.3619 7.35801 23.2304C7.52358 23.1154 7.72845 23.0719 7.92644 23.1097C8.153 23.153 8.37057 23.3706 8.80572 23.8057L12.1944 27.1943C12.6295 27.6295 12.8471 27.8471 12.8903 28.0736C12.9282 28.2716 12.8847 28.4765 12.7697 28.6421C12.6382 28.8315 12.351 28.942 11.7766 29.1629L3.75 32.25Z" stroke="black" stroke-width="3" stroke-linecap="round" stroke-linejoin="round"/>
</svg>
