<svg width="23" height="23" viewBox="0 0 23 23" fill="none" xmlns="http://www.w3.org/2000/svg">
<path d="M15.3333 5.74984V4.98317C15.3333 3.90974 15.3333 3.37302 15.1244 2.96302C14.9407 2.60238 14.6475 2.30917 14.2868 2.12541C13.8768 1.9165 13.3401 1.9165 12.2667 1.9165H10.7333C9.6599 1.9165 9.12318 1.9165 8.71318 2.12541C8.35254 2.30917 8.05933 2.60238 7.87557 2.96302C7.66667 3.37302 7.66667 3.90974 7.66667 4.98317V5.74984M9.58333 11.0207V15.8123M13.4167 11.0207V15.8123M2.875 5.74984H20.125M18.2083 5.74984V16.4832C18.2083 18.0933 18.2083 18.8984 17.895 19.5134C17.6193 20.0544 17.1795 20.4942 16.6386 20.7698C16.0236 21.0832 15.2185 21.0832 13.6083 21.0832H9.39167C7.78152 21.0832 6.97644 21.0832 6.36144 20.7698C5.82048 20.4942 5.38066 20.0544 5.10502 19.5134C4.79167 18.8984 4.79167 18.0933 4.79167 16.4832V5.74984" stroke="black" stroke-width="2" stroke-linecap="round" stroke-linejoin="round"/>
</svg>
