<svg width="45" height="45" viewBox="0 0 45 45" fill="none" xmlns="http://www.w3.org/2000/svg">
<path d="M8.77077 37.6034C10.0128 34.6773 12.9125 32.625 16.2917 32.625H28.5417C31.9208 32.625 34.8206 34.6773 36.0626 37.6034M30.5833 17.3125C30.5833 21.8228 26.927 25.4792 22.4167 25.4792C17.9063 25.4792 14.25 21.8228 14.25 17.3125C14.25 12.8022 17.9063 9.14583 22.4167 9.14583C26.927 9.14583 30.5833 12.8022 30.5833 17.3125ZM42.8333 22.4167C42.8333 33.6925 33.6925 42.8333 22.4167 42.8333C11.1409 42.8333 2 33.6925 2 22.4167C2 11.1409 11.1409 2 22.4167 2C33.6925 2 42.8333 11.1409 42.8333 22.4167Z" stroke="white" stroke-width="4" stroke-linecap="round" stroke-linejoin="round"/>
</svg>
